<svg width="100" height="100" viewBox="0 0 100 100" fill="none" xmlns="http://www.w3.org/2000/svg">
<rect width="100" height="100" fill="white"/>
<mask id="path-1-outside-1_110_35" maskUnits="userSpaceOnUse" x="1" y="25" width="87" height="50" fill="black">
<rect fill="white" x="1" y="25" width="87" height="50"/>
<path d="M2.91761 44V26.5455H5.46591V33.0312H5.61932C5.76705 32.7585 5.98011 32.4432 6.25852 32.0852C6.53693 31.7273 6.9233 31.4148 7.41761 31.1477C7.91193 30.875 8.56534 30.7386 9.37784 30.7386C10.4347 30.7386 11.3778 31.0057 12.2074 31.5398C13.0369 32.0739 13.6875 32.8437 14.1591 33.8494C14.6364 34.8551 14.875 36.0653 14.875 37.4801C14.875 38.8949 14.6392 40.108 14.1676 41.1193C13.696 42.125 13.0483 42.9006 12.2244 43.446C11.4006 43.9858 10.4602 44.2557 9.40341 44.2557C8.60795 44.2557 7.95739 44.1222 7.4517 43.8551C6.9517 43.5881 6.55966 43.2756 6.27557 42.9176C5.99148 42.5597 5.77273 42.2415 5.61932 41.9631H5.40625V44H2.91761ZM5.41477 37.4545C5.41477 38.375 5.5483 39.1818 5.81534 39.875C6.08239 40.5682 6.46875 41.1108 6.97443 41.5028C7.48011 41.8892 8.09943 42.0824 8.83239 42.0824C9.59375 42.0824 10.2301 41.8807 10.7415 41.4773C11.2528 41.0682 11.6392 40.5142 11.9006 39.8153C12.1676 39.1165 12.3011 38.3295 12.3011 37.4545C12.3011 36.5909 12.1705 35.8153 11.9091 35.1278C11.6534 34.4403 11.267 33.8977 10.75 33.5C10.2386 33.1023 9.59943 32.9034 8.83239 32.9034C8.09375 32.9034 7.46875 33.0937 6.95739 33.4744C6.4517 33.8551 6.06818 34.3864 5.80682 35.0682C5.54545 35.75 5.41477 36.5455 5.41477 37.4545ZM22.2048 26.5455V44H19.6565V26.5455H22.2048ZM35.8457 38.571V30.9091H38.4025V44H35.8968V41.733H35.7605C35.4593 42.4318 34.9764 43.0142 34.3116 43.4801C33.6525 43.9403 32.8315 44.1705 31.8485 44.1705C31.0076 44.1705 30.2633 43.9858 29.6156 43.6165C28.9735 43.2415 28.4678 42.6875 28.0985 41.9545C27.7349 41.2216 27.5531 40.3153 27.5531 39.2358V30.9091H30.1014V38.929C30.1014 39.821 30.3485 40.5312 30.8428 41.0597C31.3372 41.5881 31.9792 41.8523 32.769 41.8523C33.2463 41.8523 33.7207 41.733 34.1923 41.4943C34.6695 41.2557 35.0644 40.8949 35.3769 40.4119C35.6951 39.929 35.8514 39.3153 35.8457 38.571ZM49.3885 44.2642C48.0988 44.2642 46.988 43.9886 46.0562 43.4375C45.13 42.8807 44.4141 42.0994 43.9084 41.0938C43.4084 40.0824 43.1584 38.8977 43.1584 37.5398C43.1584 36.1989 43.4084 35.017 43.9084 33.9943C44.4141 32.9716 45.1187 32.1733 46.0221 31.5994C46.9312 31.0256 47.9937 30.7386 49.2096 30.7386C49.9482 30.7386 50.6641 30.8608 51.3573 31.1051C52.0505 31.3494 52.6726 31.733 53.2238 32.2557C53.7749 32.7784 54.2096 33.4574 54.5278 34.2926C54.8459 35.1222 55.005 36.1307 55.005 37.3182V38.2216H44.5988V36.3125H52.5079C52.5079 35.642 52.3715 35.0483 52.0988 34.5312C51.826 34.0085 51.4425 33.5966 50.9482 33.2955C50.4596 32.9943 49.8857 32.8438 49.2266 32.8438C48.5107 32.8438 47.8857 33.0199 47.3516 33.3722C46.8232 33.7187 46.4141 34.1733 46.1243 34.7358C45.8403 35.2926 45.6982 35.8977 45.6982 36.5511V38.0426C45.6982 38.9176 45.8516 39.6619 46.1584 40.2756C46.4709 40.8892 46.9056 41.358 47.4624 41.6818C48.0192 42 48.6698 42.1591 49.4141 42.1591C49.8971 42.1591 50.3374 42.0909 50.7351 41.9545C51.1329 41.8125 51.4766 41.6023 51.7664 41.3239C52.0562 41.0455 52.2778 40.7017 52.4312 40.2926L54.8431 40.7273C54.6499 41.4375 54.3033 42.0597 53.8033 42.5938C53.309 43.1222 52.6868 43.5341 51.9368 43.8295C51.1925 44.1193 50.3431 44.2642 49.3885 44.2642ZM2.91761 73V55.5455H5.46591V62.0312H5.61932C5.76705 61.7585 5.98011 61.4432 6.25852 61.0852C6.53693 60.7273 6.9233 60.4148 7.41761 60.1477C7.91193 59.875 8.56534 59.7386 9.37784 59.7386C10.4347 59.7386 11.3778 60.0057 12.2074 60.5398C13.0369 61.0739 13.6875 61.8437 14.1591 62.8494C14.6364 63.8551 14.875 65.0653 14.875 66.4801C14.875 67.8949 14.6392 69.108 14.1676 70.1193C13.696 71.125 13.0483 71.9006 12.2244 72.446C11.4006 72.9858 10.4602 73.2557 9.40341 73.2557C8.60795 73.2557 7.95739 73.1222 7.4517 72.8551C6.9517 72.5881 6.55966 72.2756 6.27557 71.9176C5.99148 71.5597 5.77273 71.2415 5.61932 70.9631H5.40625V73H2.91761ZM5.41477 66.4545C5.41477 67.375 5.5483 68.1818 5.81534 68.875C6.08239 69.5682 6.46875 70.1108 6.97443 70.5028C7.48011 70.8892 8.09943 71.0824 8.83239 71.0824C9.59375 71.0824 10.2301 70.8807 10.7415 70.4773C11.2528 70.0682 11.6392 69.5142 11.9006 68.8153C12.1676 68.1165 12.3011 67.3295 12.3011 66.4545C12.3011 65.5909 12.1705 64.8153 11.9091 64.1278C11.6534 63.4403 11.267 62.8977 10.75 62.5C10.2386 62.1023 9.59943 61.9034 8.83239 61.9034C8.09375 61.9034 7.46875 62.0937 6.95739 62.4744C6.4517 62.8551 6.06818 63.3864 5.80682 64.0682C5.54545 64.75 5.41477 65.5455 5.41477 66.4545ZM25.1707 73.2642C23.9434 73.2642 22.8724 72.983 21.9576 72.4205C21.0429 71.858 20.3326 71.071 19.827 70.0597C19.3213 69.0483 19.0684 67.8665 19.0684 66.5142C19.0684 65.1562 19.3213 63.9687 19.827 62.9517C20.3326 61.9347 21.0429 61.1449 21.9576 60.5824C22.8724 60.0199 23.9434 59.7386 25.1707 59.7386C26.398 59.7386 27.469 60.0199 28.3838 60.5824C29.2986 61.1449 30.0088 61.9347 30.5145 62.9517C31.0201 63.9687 31.273 65.1562 31.273 66.5142C31.273 67.8665 31.0201 69.0483 30.5145 70.0597C30.0088 71.071 29.2986 71.858 28.3838 72.4205C27.469 72.983 26.398 73.2642 25.1707 73.2642ZM25.1792 71.125C25.9747 71.125 26.6338 70.9148 27.1565 70.4943C27.6792 70.0739 28.0656 69.5142 28.3156 68.8153C28.5713 68.1165 28.6991 67.3466 28.6991 66.5057C28.6991 65.6705 28.5713 64.9034 28.3156 64.2045C28.0656 63.5 27.6792 62.9347 27.1565 62.5085C26.6338 62.0824 25.9747 61.8693 25.1792 61.8693C24.3781 61.8693 23.7133 62.0824 23.1849 62.5085C22.6622 62.9347 22.273 63.5 22.0173 64.2045C21.7673 64.9034 21.6423 65.6705 21.6423 66.5057C21.6423 67.3466 21.7673 68.1165 22.0173 68.8153C22.273 69.5142 22.6622 70.0739 23.1849 70.4943C23.7133 70.9148 24.3781 71.125 25.1792 71.125ZM36.0374 73V59.9091H38.5005V61.9886H38.6369C38.8755 61.2841 39.296 60.7301 39.8982 60.3267C40.5062 59.9176 41.1937 59.7131 41.9607 59.7131C42.1198 59.7131 42.3073 59.7187 42.5232 59.7301C42.7448 59.7415 42.9181 59.7557 43.0431 59.7727V62.2102C42.9409 62.1818 42.759 62.1506 42.4977 62.1165C42.2363 62.0767 41.9749 62.0568 41.7136 62.0568C41.1113 62.0568 40.5744 62.1847 40.1028 62.4403C39.6369 62.6903 39.2676 63.0398 38.9948 63.4886C38.7221 63.9318 38.5857 64.4375 38.5857 65.0057V73H36.0374ZM51.6002 73.2557C50.5434 73.2557 49.6002 72.9858 48.7707 72.446C47.9468 71.9006 47.2991 71.125 46.8275 70.1193C46.3616 69.108 46.1286 67.8949 46.1286 66.4801C46.1286 65.0653 46.3644 63.8551 46.836 62.8494C47.3133 61.8437 47.9667 61.0739 48.7962 60.5398C49.6258 60.0057 50.5661 59.7386 51.6172 59.7386C52.4297 59.7386 53.0832 59.875 53.5775 60.1477C54.0775 60.4148 54.4638 60.7273 54.7366 61.0852C55.015 61.4432 55.2309 61.7585 55.3843 62.0312H55.5377V55.5455H58.086V73H55.5974V70.9631H55.3843C55.2309 71.2415 55.0093 71.5597 54.7195 71.9176C54.4354 72.2756 54.0434 72.5881 53.5434 72.8551C53.0434 73.1222 52.3957 73.2557 51.6002 73.2557ZM52.1627 71.0824C52.8957 71.0824 53.515 70.8892 54.0207 70.5028C54.532 70.1108 54.9184 69.5682 55.1797 68.875C55.4468 68.1818 55.5803 67.375 55.5803 66.4545C55.5803 65.5455 55.4496 64.75 55.1883 64.0682C54.9269 63.3864 54.5434 62.8551 54.0377 62.4744C53.532 62.0937 52.907 61.9034 52.1627 61.9034C51.3957 61.9034 50.7564 62.1023 50.2451 62.5C49.7337 62.8977 49.3474 63.4403 49.086 64.1278C48.8303 64.8153 48.7025 65.5909 48.7025 66.4545C48.7025 67.3295 48.8332 68.1165 49.0945 68.8153C49.3559 69.5142 49.7422 70.0682 50.2536 70.4773C50.7707 70.8807 51.407 71.0824 52.1627 71.0824ZM69.2851 73.2642C67.9953 73.2642 66.8845 72.9886 65.9527 72.4375C65.0266 71.8807 64.3107 71.0994 63.805 70.0938C63.305 69.0824 63.055 67.8977 63.055 66.5398C63.055 65.1989 63.305 64.017 63.805 62.9943C64.3107 61.9716 65.0152 61.1733 65.9186 60.5994C66.8277 60.0256 67.8902 59.7386 69.1061 59.7386C69.8448 59.7386 70.5607 59.8608 71.2539 60.1051C71.947 60.3494 72.5692 60.733 73.1203 61.2557C73.6715 61.7784 74.1061 62.4574 74.4243 63.2926C74.7425 64.1222 74.9016 65.1307 74.9016 66.3182V67.2216H64.4953V65.3125H72.4044C72.4044 64.642 72.2681 64.0483 71.9953 63.5312C71.7226 63.0085 71.3391 62.5966 70.8448 62.2955C70.3561 61.9943 69.7823 61.8438 69.1232 61.8438C68.4073 61.8438 67.7823 62.0199 67.2482 62.3722C66.7198 62.7187 66.3107 63.1733 66.0209 63.7358C65.7368 64.2926 65.5948 64.8977 65.5948 65.5511V67.0426C65.5948 67.9176 65.7482 68.6619 66.055 69.2756C66.3675 69.8892 66.8022 70.358 67.359 70.6818C67.9158 71 68.5664 71.1591 69.3107 71.1591C69.7936 71.1591 70.234 71.0909 70.6317 70.9545C71.0294 70.8125 71.3732 70.6023 71.663 70.3239C71.9527 70.0455 72.1743 69.7017 72.3277 69.2926L74.7397 69.7273C74.5465 70.4375 74.1999 71.0597 73.6999 71.5938C73.2056 72.1222 72.5834 72.5341 71.8334 72.8295C71.0891 73.1193 70.2397 73.2642 69.2851 73.2642ZM79.649 73V59.9091H82.1121V61.9886H82.2484C82.4871 61.2841 82.9075 60.7301 83.5098 60.3267C84.1178 59.9176 84.8053 59.7131 85.5723 59.7131C85.7314 59.7131 85.9189 59.7187 86.1348 59.7301C86.3564 59.7415 86.5297 59.7557 86.6547 59.7727V62.2102C86.5524 62.1818 86.3706 62.1506 86.1092 62.1165C85.8479 62.0767 85.5865 62.0568 85.3251 62.0568C84.7229 62.0568 84.1859 62.1847 83.7143 62.4403C83.2484 62.6903 82.8791 63.0398 82.6064 63.4886C82.3337 63.9318 82.1973 64.4375 82.1973 65.0057V73H79.649Z"/>
</mask>
<path d="M2.91761 44V26.5455H5.46591V33.0312H5.61932C5.76705 32.7585 5.98011 32.4432 6.25852 32.0852C6.53693 31.7273 6.9233 31.4148 7.41761 31.1477C7.91193 30.875 8.56534 30.7386 9.37784 30.7386C10.4347 30.7386 11.3778 31.0057 12.2074 31.5398C13.0369 32.0739 13.6875 32.8437 14.1591 33.8494C14.6364 34.8551 14.875 36.0653 14.875 37.4801C14.875 38.8949 14.6392 40.108 14.1676 41.1193C13.696 42.125 13.0483 42.9006 12.2244 43.446C11.4006 43.9858 10.4602 44.2557 9.40341 44.2557C8.60795 44.2557 7.95739 44.1222 7.4517 43.8551C6.9517 43.5881 6.55966 43.2756 6.27557 42.9176C5.99148 42.5597 5.77273 42.2415 5.61932 41.9631H5.40625V44H2.91761ZM5.41477 37.4545C5.41477 38.375 5.5483 39.1818 5.81534 39.875C6.08239 40.5682 6.46875 41.1108 6.97443 41.5028C7.48011 41.8892 8.09943 42.0824 8.83239 42.0824C9.59375 42.0824 10.2301 41.8807 10.7415 41.4773C11.2528 41.0682 11.6392 40.5142 11.9006 39.8153C12.1676 39.1165 12.3011 38.3295 12.3011 37.4545C12.3011 36.5909 12.1705 35.8153 11.9091 35.1278C11.6534 34.4403 11.267 33.8977 10.75 33.5C10.2386 33.1023 9.59943 32.9034 8.83239 32.9034C8.09375 32.9034 7.46875 33.0937 6.95739 33.4744C6.4517 33.8551 6.06818 34.3864 5.80682 35.0682C5.54545 35.75 5.41477 36.5455 5.41477 37.4545ZM22.2048 26.5455V44H19.6565V26.5455H22.2048ZM35.8457 38.571V30.9091H38.4025V44H35.8968V41.733H35.7605C35.4593 42.4318 34.9764 43.0142 34.3116 43.4801C33.6525 43.9403 32.8315 44.1705 31.8485 44.1705C31.0076 44.1705 30.2633 43.9858 29.6156 43.6165C28.9735 43.2415 28.4678 42.6875 28.0985 41.9545C27.7349 41.2216 27.5531 40.3153 27.5531 39.2358V30.9091H30.1014V38.929C30.1014 39.821 30.3485 40.5312 30.8428 41.0597C31.3372 41.5881 31.9792 41.8523 32.769 41.8523C33.2463 41.8523 33.7207 41.733 34.1923 41.4943C34.6695 41.2557 35.0644 40.8949 35.3769 40.4119C35.6951 39.929 35.8514 39.3153 35.8457 38.571ZM49.3885 44.2642C48.0988 44.2642 46.988 43.9886 46.0562 43.4375C45.13 42.8807 44.4141 42.0994 43.9084 41.0938C43.4084 40.0824 43.1584 38.8977 43.1584 37.5398C43.1584 36.1989 43.4084 35.017 43.9084 33.9943C44.4141 32.9716 45.1187 32.1733 46.0221 31.5994C46.9312 31.0256 47.9937 30.7386 49.2096 30.7386C49.9482 30.7386 50.6641 30.8608 51.3573 31.1051C52.0505 31.3494 52.6726 31.733 53.2238 32.2557C53.7749 32.7784 54.2096 33.4574 54.5278 34.2926C54.8459 35.1222 55.005 36.1307 55.005 37.3182V38.2216H44.5988V36.3125H52.5079C52.5079 35.642 52.3715 35.0483 52.0988 34.5312C51.826 34.0085 51.4425 33.5966 50.9482 33.2955C50.4596 32.9943 49.8857 32.8438 49.2266 32.8438C48.5107 32.8438 47.8857 33.0199 47.3516 33.3722C46.8232 33.7187 46.4141 34.1733 46.1243 34.7358C45.8403 35.2926 45.6982 35.8977 45.6982 36.5511V38.0426C45.6982 38.9176 45.8516 39.6619 46.1584 40.2756C46.4709 40.8892 46.9056 41.358 47.4624 41.6818C48.0192 42 48.6698 42.1591 49.4141 42.1591C49.8971 42.1591 50.3374 42.0909 50.7351 41.9545C51.1329 41.8125 51.4766 41.6023 51.7664 41.3239C52.0562 41.0455 52.2778 40.7017 52.4312 40.2926L54.8431 40.7273C54.6499 41.4375 54.3033 42.0597 53.8033 42.5938C53.309 43.1222 52.6868 43.5341 51.9368 43.8295C51.1925 44.1193 50.3431 44.2642 49.3885 44.2642ZM2.91761 73V55.5455H5.46591V62.0312H5.61932C5.76705 61.7585 5.98011 61.4432 6.25852 61.0852C6.53693 60.7273 6.9233 60.4148 7.41761 60.1477C7.91193 59.875 8.56534 59.7386 9.37784 59.7386C10.4347 59.7386 11.3778 60.0057 12.2074 60.5398C13.0369 61.0739 13.6875 61.8437 14.1591 62.8494C14.6364 63.8551 14.875 65.0653 14.875 66.4801C14.875 67.8949 14.6392 69.108 14.1676 70.1193C13.696 71.125 13.0483 71.9006 12.2244 72.446C11.4006 72.9858 10.4602 73.2557 9.40341 73.2557C8.60795 73.2557 7.95739 73.1222 7.4517 72.8551C6.9517 72.5881 6.55966 72.2756 6.27557 71.9176C5.99148 71.5597 5.77273 71.2415 5.61932 70.9631H5.40625V73H2.91761ZM5.41477 66.4545C5.41477 67.375 5.5483 68.1818 5.81534 68.875C6.08239 69.5682 6.46875 70.1108 6.97443 70.5028C7.48011 70.8892 8.09943 71.0824 8.83239 71.0824C9.59375 71.0824 10.2301 70.8807 10.7415 70.4773C11.2528 70.0682 11.6392 69.5142 11.9006 68.8153C12.1676 68.1165 12.3011 67.3295 12.3011 66.4545C12.3011 65.5909 12.1705 64.8153 11.9091 64.1278C11.6534 63.4403 11.267 62.8977 10.75 62.5C10.2386 62.1023 9.59943 61.9034 8.83239 61.9034C8.09375 61.9034 7.46875 62.0937 6.95739 62.4744C6.4517 62.8551 6.06818 63.3864 5.80682 64.0682C5.54545 64.75 5.41477 65.5455 5.41477 66.4545ZM25.1707 73.2642C23.9434 73.2642 22.8724 72.983 21.9576 72.4205C21.0429 71.858 20.3326 71.071 19.827 70.0597C19.3213 69.0483 19.0684 67.8665 19.0684 66.5142C19.0684 65.1562 19.3213 63.9687 19.827 62.9517C20.3326 61.9347 21.0429 61.1449 21.9576 60.5824C22.8724 60.0199 23.9434 59.7386 25.1707 59.7386C26.398 59.7386 27.469 60.0199 28.3838 60.5824C29.2986 61.1449 30.0088 61.9347 30.5145 62.9517C31.0201 63.9687 31.273 65.1562 31.273 66.5142C31.273 67.8665 31.0201 69.0483 30.5145 70.0597C30.0088 71.071 29.2986 71.858 28.3838 72.4205C27.469 72.983 26.398 73.2642 25.1707 73.2642ZM25.1792 71.125C25.9747 71.125 26.6338 70.9148 27.1565 70.4943C27.6792 70.0739 28.0656 69.5142 28.3156 68.8153C28.5713 68.1165 28.6991 67.3466 28.6991 66.5057C28.6991 65.6705 28.5713 64.9034 28.3156 64.2045C28.0656 63.5 27.6792 62.9347 27.1565 62.5085C26.6338 62.0824 25.9747 61.8693 25.1792 61.8693C24.3781 61.8693 23.7133 62.0824 23.1849 62.5085C22.6622 62.9347 22.273 63.5 22.0173 64.2045C21.7673 64.9034 21.6423 65.6705 21.6423 66.5057C21.6423 67.3466 21.7673 68.1165 22.0173 68.8153C22.273 69.5142 22.6622 70.0739 23.1849 70.4943C23.7133 70.9148 24.3781 71.125 25.1792 71.125ZM36.0374 73V59.9091H38.5005V61.9886H38.6369C38.8755 61.2841 39.296 60.7301 39.8982 60.3267C40.5062 59.9176 41.1937 59.7131 41.9607 59.7131C42.1198 59.7131 42.3073 59.7187 42.5232 59.7301C42.7448 59.7415 42.9181 59.7557 43.0431 59.7727V62.2102C42.9409 62.1818 42.759 62.1506 42.4977 62.1165C42.2363 62.0767 41.9749 62.0568 41.7136 62.0568C41.1113 62.0568 40.5744 62.1847 40.1028 62.4403C39.6369 62.6903 39.2676 63.0398 38.9948 63.4886C38.7221 63.9318 38.5857 64.4375 38.5857 65.0057V73H36.0374ZM51.6002 73.2557C50.5434 73.2557 49.6002 72.9858 48.7707 72.446C47.9468 71.9006 47.2991 71.125 46.8275 70.1193C46.3616 69.108 46.1286 67.8949 46.1286 66.4801C46.1286 65.0653 46.3644 63.8551 46.836 62.8494C47.3133 61.8437 47.9667 61.0739 48.7962 60.5398C49.6258 60.0057 50.5661 59.7386 51.6172 59.7386C52.4297 59.7386 53.0832 59.875 53.5775 60.1477C54.0775 60.4148 54.4638 60.7273 54.7366 61.0852C55.015 61.4432 55.2309 61.7585 55.3843 62.0312H55.5377V55.5455H58.086V73H55.5974V70.9631H55.3843C55.2309 71.2415 55.0093 71.5597 54.7195 71.9176C54.4354 72.2756 54.0434 72.5881 53.5434 72.8551C53.0434 73.1222 52.3957 73.2557 51.6002 73.2557ZM52.1627 71.0824C52.8957 71.0824 53.515 70.8892 54.0207 70.5028C54.532 70.1108 54.9184 69.5682 55.1797 68.875C55.4468 68.1818 55.5803 67.375 55.5803 66.4545C55.5803 65.5455 55.4496 64.75 55.1883 64.0682C54.9269 63.3864 54.5434 62.8551 54.0377 62.4744C53.532 62.0937 52.907 61.9034 52.1627 61.9034C51.3957 61.9034 50.7564 62.1023 50.2451 62.5C49.7337 62.8977 49.3474 63.4403 49.086 64.1278C48.8303 64.8153 48.7025 65.5909 48.7025 66.4545C48.7025 67.3295 48.8332 68.1165 49.0945 68.8153C49.3559 69.5142 49.7422 70.0682 50.2536 70.4773C50.7707 70.8807 51.407 71.0824 52.1627 71.0824ZM69.2851 73.2642C67.9953 73.2642 66.8845 72.9886 65.9527 72.4375C65.0266 71.8807 64.3107 71.0994 63.805 70.0938C63.305 69.0824 63.055 67.8977 63.055 66.5398C63.055 65.1989 63.305 64.017 63.805 62.9943C64.3107 61.9716 65.0152 61.1733 65.9186 60.5994C66.8277 60.0256 67.8902 59.7386 69.1061 59.7386C69.8448 59.7386 70.5607 59.8608 71.2539 60.1051C71.947 60.3494 72.5692 60.733 73.1203 61.2557C73.6715 61.7784 74.1061 62.4574 74.4243 63.2926C74.7425 64.1222 74.9016 65.1307 74.9016 66.3182V67.2216H64.4953V65.3125H72.4044C72.4044 64.642 72.2681 64.0483 71.9953 63.5312C71.7226 63.0085 71.3391 62.5966 70.8448 62.2955C70.3561 61.9943 69.7823 61.8438 69.1232 61.8438C68.4073 61.8438 67.7823 62.0199 67.2482 62.3722C66.7198 62.7187 66.3107 63.1733 66.0209 63.7358C65.7368 64.2926 65.5948 64.8977 65.5948 65.5511V67.0426C65.5948 67.9176 65.7482 68.6619 66.055 69.2756C66.3675 69.8892 66.8022 70.358 67.359 70.6818C67.9158 71 68.5664 71.1591 69.3107 71.1591C69.7936 71.1591 70.234 71.0909 70.6317 70.9545C71.0294 70.8125 71.3732 70.6023 71.663 70.3239C71.9527 70.0455 72.1743 69.7017 72.3277 69.2926L74.7397 69.7273C74.5465 70.4375 74.1999 71.0597 73.6999 71.5938C73.2056 72.1222 72.5834 72.5341 71.8334 72.8295C71.0891 73.1193 70.2397 73.2642 69.2851 73.2642ZM79.649 73V59.9091H82.1121V61.9886H82.2484C82.4871 61.2841 82.9075 60.7301 83.5098 60.3267C84.1178 59.9176 84.8053 59.7131 85.5723 59.7131C85.7314 59.7131 85.9189 59.7187 86.1348 59.7301C86.3564 59.7415 86.5297 59.7557 86.6547 59.7727V62.2102C86.5524 62.1818 86.3706 62.1506 86.1092 62.1165C85.8479 62.0767 85.5865 62.0568 85.3251 62.0568C84.7229 62.0568 84.1859 62.1847 83.7143 62.4403C83.2484 62.6903 82.8791 63.0398 82.6064 63.4886C82.3337 63.9318 82.1973 64.4375 82.1973 65.0057V73H79.649Z" fill="white"/>
<path d="M2.91761 44H1.91761V45H2.91761V44ZM2.91761 26.5455V25.5455H1.91761V26.5455H2.91761ZM5.46591 26.5455H6.46591V25.5455H5.46591V26.5455ZM5.46591 33.0312H4.46591V34.0312H5.46591V33.0312ZM5.61932 33.0312V34.0312H6.21493L6.49861 33.5075L5.61932 33.0312ZM6.25852 32.0852L7.04788 32.6992L7.04788 32.6992L6.25852 32.0852ZM7.41761 31.1477L7.89294 32.0276L7.90069 32.0233L7.41761 31.1477ZM12.2074 31.5398L11.666 32.3806L11.666 32.3806L12.2074 31.5398ZM14.1591 33.8494L13.2537 34.274L13.2557 34.2782L14.1591 33.8494ZM14.1676 41.1193L15.073 41.5439L15.0739 41.5419L14.1676 41.1193ZM12.2244 43.446L12.7725 44.2825L12.7765 44.2798L12.2244 43.446ZM7.4517 43.8551L6.98059 44.7372L6.98473 44.7394L7.4517 43.8551ZM6.27557 42.9176L5.49228 43.5393L5.49228 43.5393L6.27557 42.9176ZM5.61932 41.9631L6.49516 41.4805L6.21006 40.9631H5.61932V41.9631ZM5.40625 41.9631V40.9631H4.40625V41.9631H5.40625ZM5.40625 44V45H6.40625V44H5.40625ZM5.81534 39.875L4.88219 40.2345L4.88219 40.2345L5.81534 39.875ZM6.97443 41.5028L6.36171 42.2932L6.36731 42.2975L6.97443 41.5028ZM10.7415 41.4773L11.3609 42.2624L11.3662 42.2581L10.7415 41.4773ZM11.9006 39.8153L10.9664 39.4584L10.9639 39.4651L11.9006 39.8153ZM11.9091 35.1278L10.9718 35.4764L10.9744 35.4832L11.9091 35.1278ZM10.75 33.5L10.1361 34.2894L10.1403 34.2926L10.75 33.5ZM6.95739 33.4744L6.36023 32.6723L6.35595 32.6755L6.95739 33.4744ZM5.80682 35.0682L4.87307 34.7102L4.87307 34.7102L5.80682 35.0682ZM3.91761 44V26.5455H1.91761V44H3.91761ZM2.91761 27.5455H5.46591V25.5455H2.91761V27.5455ZM4.46591 26.5455V33.0312H6.46591V26.5455H4.46591ZM5.46591 34.0312H5.61932V32.0312H5.46591V34.0312ZM6.49861 33.5075C6.61125 33.2996 6.78927 33.0317 7.04788 32.6992L5.46917 31.4713C5.17096 31.8547 4.92284 32.2175 4.74003 32.555L6.49861 33.5075ZM7.04788 32.6992C7.2234 32.4735 7.49226 32.244 7.89292 32.0275L6.94231 30.2679C6.35433 30.5855 5.85046 30.9811 5.46917 31.4713L7.04788 32.6992ZM7.90069 32.0233C8.19626 31.8602 8.66477 31.7386 9.37784 31.7386V29.7386C8.46591 29.7386 7.62761 29.8898 6.93454 30.2721L7.90069 32.0233ZM9.37784 31.7386C10.257 31.7386 11.0095 31.9579 11.666 32.3806L12.7487 30.699C11.7462 30.0535 10.6124 29.7386 9.37784 29.7386V31.7386ZM11.666 32.3806C12.3183 32.8005 12.8516 33.4165 13.2537 34.274L15.0645 33.4249C14.5234 32.271 13.7556 31.3472 12.7487 30.699L11.666 32.3806ZM13.2557 34.2782C13.6545 35.1187 13.875 36.1747 13.875 37.4801H15.875C15.875 35.9559 15.6182 34.5915 15.0625 33.4207L13.2557 34.2782ZM13.875 37.4801C13.875 38.7867 13.657 39.8482 13.2613 40.6967L15.0739 41.5419C15.6214 40.3677 15.875 39.0031 15.875 37.4801H13.875ZM13.2622 40.6948C12.8587 41.5553 12.3247 42.1803 11.6724 42.6122L12.7765 44.2798C13.7719 43.6208 14.5334 42.6947 15.073 41.5439L13.2622 40.6948ZM11.6764 42.6096C11.0274 43.0348 10.2804 43.2557 9.40341 43.2557V45.2557C10.6401 45.2557 11.7737 44.9368 12.7725 44.2825L11.6764 42.6096ZM9.40341 43.2557C8.71054 43.2557 8.23527 43.138 7.91868 42.9708L6.98473 44.7394C7.6795 45.1063 8.50537 45.2557 9.40341 45.2557V43.2557ZM7.92281 42.973C7.51542 42.7555 7.23998 42.5242 7.05886 42.296L5.49228 43.5393C5.87934 44.027 6.38799 44.4207 6.9806 44.7372L7.92281 42.973ZM7.05886 42.296C6.7958 41.9645 6.6128 41.694 6.49516 41.4805L4.74348 42.4457C4.93265 42.789 5.18715 43.1548 5.49228 43.5393L7.05886 42.296ZM5.61932 40.9631H5.40625V42.9631H5.61932V40.9631ZM4.40625 41.9631V44H6.40625V41.9631H4.40625ZM5.40625 43H2.91761V45H5.40625V43ZM4.41477 37.4545C4.41477 38.4696 4.5618 39.4028 4.88219 40.2345L6.74849 39.5155C6.5348 38.9608 6.41477 38.2804 6.41477 37.4545H4.41477ZM4.88219 40.2345C5.20407 41.07 5.69009 41.7724 6.36172 42.2931L7.58714 40.7125C7.24741 40.4491 6.9607 40.0664 6.74849 39.5155L4.88219 40.2345ZM6.36731 42.2975C7.07309 42.8367 7.91476 43.0824 8.83239 43.0824V41.0824C8.2841 41.0824 7.88714 40.9417 7.58155 40.7082L6.36731 42.2975ZM8.83239 43.0824C9.77888 43.0824 10.6443 42.8277 11.3608 42.2624L10.1221 40.6922C9.81596 40.9337 9.40862 41.0824 8.83239 41.0824V43.0824ZM11.3662 42.2581C12.0372 41.7213 12.5216 41.0095 12.8372 40.1656L10.9639 39.4651C10.7568 40.0189 10.4684 40.4151 10.1168 40.6964L11.3662 42.2581ZM12.8347 40.1723C13.152 39.3419 13.3011 38.4312 13.3011 37.4545H11.3011C11.3011 38.2279 11.1832 38.8911 10.9664 39.4584L12.8347 40.1723ZM13.3011 37.4545C13.3011 36.4902 13.1551 35.5914 12.8438 34.7725L10.9744 35.4832C11.1858 36.0393 11.3011 36.6916 11.3011 37.4545H13.3011ZM12.8464 34.7793C12.5337 33.9385 12.0434 33.2333 11.3597 32.7074L10.1403 34.2926C10.4907 34.5622 10.7731 34.9422 10.9718 35.4764L12.8464 34.7793ZM11.3639 32.7106C10.6462 32.1524 9.77936 31.9034 8.83239 31.9034V33.9034C9.41951 33.9034 9.83103 34.0521 10.1361 34.2894L11.3639 32.7106ZM8.83239 31.9034C7.91405 31.9034 7.07061 32.1435 6.36024 32.6723L7.55453 34.2766C7.86689 34.044 8.27345 33.9034 8.83239 33.9034V31.9034ZM6.35595 32.6755C5.67841 33.1856 5.19109 33.8806 4.87307 34.7102L6.74056 35.4261C6.94528 34.8921 7.225 34.5247 7.55882 34.2734L6.35595 32.6755ZM4.87307 34.7102C4.55864 35.5305 4.41477 36.452 4.41477 37.4545H6.41477C6.41477 36.6389 6.53227 35.9695 6.74056 35.4261L4.87307 34.7102ZM22.2048 26.5455H23.2048V25.5455H22.2048V26.5455ZM22.2048 44V45H23.2048V44H22.2048ZM19.6565 44H18.6565V45H19.6565V44ZM19.6565 26.5455V25.5455H18.6565V26.5455H19.6565ZM21.2048 26.5455V44H23.2048V26.5455H21.2048ZM22.2048 43H19.6565V45H22.2048V43ZM20.6565 44V26.5455H18.6565V44H20.6565ZM19.6565 27.5455H22.2048V25.5455H19.6565V27.5455ZM35.8457 38.571L34.8457 38.571L34.8457 38.5787L35.8457 38.571ZM35.8457 30.9091V29.9091H34.8457V30.9091H35.8457ZM38.4025 30.9091H39.4025V29.9091H38.4025V30.9091ZM38.4025 44V45H39.4025V44H38.4025ZM35.8968 44H34.8968V45H35.8968V44ZM35.8968 41.733H36.8968V40.733H35.8968V41.733ZM35.7605 41.733V40.733H35.1025L34.8421 41.3372L35.7605 41.733ZM34.3116 43.4801L34.8841 44.3L34.8855 44.299L34.3116 43.4801ZM29.6156 43.6165L29.1112 44.48L29.1203 44.4852L29.6156 43.6165ZM28.0985 41.9545L27.2027 42.399L27.2055 42.4045L28.0985 41.9545ZM27.5531 30.9091V29.9091H26.5531V30.9091H27.5531ZM30.1014 30.9091H31.1014V29.9091H30.1014V30.9091ZM30.8428 41.0597L31.5731 40.3765L31.5731 40.3765L30.8428 41.0597ZM34.1923 41.4943L33.7451 40.5999L33.7408 40.6021L34.1923 41.4943ZM35.3769 40.4119L34.5418 39.8618L34.5374 39.8687L35.3769 40.4119ZM36.8457 38.571V30.9091H34.8457V38.571H36.8457ZM35.8457 31.9091H38.4025V29.9091H35.8457V31.9091ZM37.4025 30.9091V44H39.4025V30.9091H37.4025ZM38.4025 43H35.8968V45H38.4025V43ZM36.8968 44V41.733H34.8968V44H36.8968ZM35.8968 40.733H35.7605V42.733H35.8968V40.733ZM34.8421 41.3372C34.6193 41.8544 34.2612 42.2943 33.7377 42.6612L34.8855 44.299C35.6916 43.7341 36.2994 43.0093 36.6788 42.1287L34.8421 41.3372ZM33.7391 42.6602C33.2822 42.9793 32.673 43.1705 31.8485 43.1705V45.1705C32.99 45.1705 34.0228 44.9014 34.8841 44.3L33.7391 42.6602ZM31.8485 43.1705C31.1587 43.1705 30.5892 43.0205 30.1109 42.7478L29.1203 44.4852C29.9374 44.9511 30.8565 45.1705 31.8485 45.1705V43.1705ZM30.1199 42.753C29.6618 42.4854 29.2833 42.0836 28.9916 41.5046L27.2055 42.4045C27.6524 43.2914 28.2853 43.9976 29.1112 44.48L30.1199 42.753ZM28.9943 41.5101C28.7175 40.9521 28.5531 40.2084 28.5531 39.2358H26.5531C26.5531 40.4223 26.7523 41.491 27.2027 42.399L28.9943 41.5101ZM28.5531 39.2358V30.9091H26.5531V39.2358H28.5531ZM27.5531 31.9091H30.1014V29.9091H27.5531V31.9091ZM29.1014 30.9091V38.929H31.1014V30.9091H29.1014ZM29.1014 38.929C29.1014 40.0127 29.4068 40.9883 30.1126 41.7428L31.5731 40.3765C31.2903 40.0742 31.1014 39.6294 31.1014 38.929H29.1014ZM30.1126 41.7428C30.8144 42.493 31.7306 42.8523 32.769 42.8523V40.8523C32.2278 40.8523 31.8599 40.6831 31.5731 40.3765L30.1126 41.7428ZM32.769 42.8523C33.4194 42.8523 34.0475 42.6883 34.6438 42.3866L33.7408 40.6021C33.3939 40.7776 33.0731 40.8523 32.769 40.8523V42.8523ZM34.6395 42.3887C35.289 42.064 35.8148 41.576 36.2165 40.9552L34.5374 39.8687C34.3141 40.2137 34.0501 40.4474 33.7451 40.5999L34.6395 42.3887ZM36.212 40.9621C36.6666 40.2721 36.8524 39.4494 36.8457 38.5634L34.8457 38.5787C34.8503 39.1813 34.7236 39.5859 34.5419 39.8618L36.212 40.9621ZM46.0562 43.4375L45.5409 44.2946L45.5471 44.2982L46.0562 43.4375ZM43.9084 41.0938L43.012 41.5369L43.015 41.543L43.9084 41.0938ZM43.9084 33.9943L43.012 33.5511L43.0101 33.5551L43.9084 33.9943ZM46.0221 31.5994L45.4883 30.7538L45.4859 30.7553L46.0221 31.5994ZM51.3573 31.1051L51.6897 30.162L51.6897 30.162L51.3573 31.1051ZM53.2238 32.2557L52.5356 32.9812L52.5356 32.9812L53.2238 32.2557ZM54.5278 34.2926L53.5933 34.6486L53.5941 34.6507L54.5278 34.2926ZM55.005 38.2216V39.2216H56.005V38.2216H55.005ZM44.5988 38.2216H43.5988V39.2216H44.5988V38.2216ZM44.5988 36.3125V35.3125H43.5988V36.3125H44.5988ZM52.5079 36.3125V37.3125H53.5079V36.3125H52.5079ZM52.0988 34.5312L51.2122 34.9938L51.2143 34.9978L52.0988 34.5312ZM50.9482 33.2955L50.4236 34.1468L50.428 34.1495L50.9482 33.2955ZM47.3516 33.3722L47.9001 34.2083L47.9022 34.2069L47.3516 33.3722ZM46.1243 34.7358L45.2354 34.2778L45.2336 34.2813L46.1243 34.7358ZM46.1584 40.2756L45.264 40.7228L45.2673 40.7294L46.1584 40.2756ZM47.4624 41.6818L46.9596 42.5463L46.9663 42.5501L47.4624 41.6818ZM50.7351 41.9545L51.0595 42.9006L51.0715 42.8963L50.7351 41.9545ZM51.7664 41.3239L51.0736 40.6028L51.0736 40.6028L51.7664 41.3239ZM52.4312 40.2926L52.6085 39.3085L51.7877 39.1605L51.4948 39.9415L52.4312 40.2926ZM54.8431 40.7273L55.808 40.9897L56.0945 39.9367L55.0205 39.7431L54.8431 40.7273ZM53.8033 42.5938L53.0733 41.9103L53.0731 41.9106L53.8033 42.5938ZM51.9368 43.8295L52.2996 44.7614L52.3034 44.76L51.9368 43.8295ZM49.3885 43.2642C48.2434 43.2642 47.3157 43.0207 46.5652 42.5768L45.5471 44.2982C46.6602 44.9566 47.9541 45.2642 49.3885 45.2642V43.2642ZM46.5714 42.5805C45.8143 42.1253 45.2263 41.4886 44.8019 40.6445L43.015 41.543C43.6019 42.7102 44.4457 43.6361 45.5409 44.2945L46.5714 42.5805ZM44.8049 40.6506C44.3855 39.8023 44.1584 38.7749 44.1584 37.5398H42.1584C42.1584 39.0205 42.4314 40.3625 43.012 41.5369L44.8049 40.6506ZM44.1584 37.5398C44.1584 36.3242 44.3846 35.2972 44.8068 34.4335L43.0101 33.5551C42.4323 34.7369 42.1584 36.0735 42.1584 37.5398H44.1584ZM44.8048 34.4375C45.235 33.5676 45.8196 32.9127 46.5583 32.4435L45.4859 30.7553C44.4177 31.4339 43.5933 32.3756 43.012 33.5511L44.8048 34.4375ZM46.5559 32.445C47.285 31.9848 48.1572 31.7386 49.2096 31.7386V29.7386C47.8302 29.7386 46.5774 30.0663 45.4883 30.7538L46.5559 32.445ZM49.2096 31.7386C49.8356 31.7386 50.439 31.8418 51.0249 32.0482L51.6897 30.162C50.8892 29.8798 50.0609 29.7386 49.2096 29.7386V31.7386ZM51.0249 32.0482C51.581 32.2443 52.083 32.5519 52.5356 32.9812L53.9119 31.5301C53.2623 30.914 52.5199 30.4546 51.6897 30.162L51.0249 32.0482ZM52.5356 32.9812C52.9604 33.3841 53.3191 33.9289 53.5933 34.6486L55.4622 33.9366C55.1001 32.9859 54.5894 32.1727 53.9119 31.5301L52.5356 32.9812ZM53.5941 34.6507C53.8564 35.3346 54.005 36.2143 54.005 37.3182H56.005C56.005 36.047 55.8355 34.9097 55.4614 33.9345L53.5941 34.6507ZM54.005 37.3182V38.2216H56.005V37.3182H54.005ZM55.005 37.2216H44.5988V39.2216H55.005V37.2216ZM45.5988 38.2216V36.3125H43.5988V38.2216H45.5988ZM44.5988 37.3125H52.5079V35.3125H44.5988V37.3125ZM53.5079 36.3125C53.5079 35.5035 53.3423 34.7454 52.9833 34.0647L51.2143 34.9978C51.4007 35.3512 51.5079 35.7806 51.5079 36.3125H53.5079ZM52.9854 34.0687C52.6301 33.3877 52.1213 32.8391 51.4685 32.4414L50.428 34.1495C50.7638 34.3541 51.022 34.6293 51.2122 34.9938L52.9854 34.0687ZM51.4729 32.4441C50.8042 32.0321 50.0429 31.8438 49.2266 31.8438V33.8438C49.7285 33.8438 50.1149 33.9566 50.4236 34.1468L51.4729 32.4441ZM49.2266 31.8438C48.3391 31.8438 47.5175 32.0648 46.801 32.5374L47.9022 34.2069C48.2539 33.975 48.6824 33.8438 49.2266 33.8438V31.8438ZM46.8032 32.536C46.1303 32.9773 45.604 33.5622 45.2354 34.2778L47.0133 35.1938C47.2242 34.7844 47.5161 34.4602 47.9001 34.2083L46.8032 32.536ZM45.2336 34.2813C44.8744 34.9853 44.6982 35.7471 44.6982 36.5511H46.6982C46.6982 36.0483 46.8061 35.5999 47.0151 35.1903L45.2336 34.2813ZM44.6982 36.5511V38.0426H46.6982V36.5511H44.6982ZM44.6982 38.0426C44.6982 39.0314 44.8713 39.9374 45.264 40.7228L47.0529 39.8284C46.8319 39.3865 46.6982 38.8039 46.6982 38.0426H44.6982ZM45.2673 40.7294C45.6608 41.502 46.225 42.1189 46.9596 42.5462L47.9652 40.8174C47.5862 40.597 47.2811 40.2764 47.0495 39.8218L45.2673 40.7294ZM46.9663 42.5501C47.697 42.9676 48.524 43.1591 49.4141 43.1591V41.1591C48.8156 41.1591 48.3415 41.0324 47.9586 40.8136L46.9663 42.5501ZM49.4141 43.1591C49.9913 43.1591 50.5431 43.0775 51.0595 42.9005L50.4108 41.0086C50.1317 41.1043 49.8028 41.1591 49.4141 41.1591V43.1591ZM51.0715 42.8963C51.5954 42.7092 52.0624 42.4263 52.4592 42.045L51.0736 40.6028C50.8909 40.7783 50.6704 40.9158 50.3988 41.0128L51.0715 42.8963ZM52.4592 42.045C52.866 41.6542 53.1662 41.1804 53.3675 40.6437L51.4948 39.9415C51.3893 40.223 51.2464 40.4367 51.0736 40.6028L52.4592 42.045ZM52.2538 41.2768L54.6657 41.7114L55.0205 39.7431L52.6085 39.3085L52.2538 41.2768ZM53.8782 40.4648C53.7275 41.0187 53.4611 41.496 53.0733 41.9103L54.5333 43.2772C55.1455 42.6233 55.5723 41.8563 55.808 40.9897L53.8782 40.4648ZM53.0731 41.9106C52.6912 42.3188 52.1981 42.6518 51.5703 42.8991L52.3034 44.76C53.1756 44.4164 53.9268 43.9255 54.5336 43.2769L53.0731 41.9106ZM51.5741 42.8977C50.9655 43.1346 50.2426 43.2642 49.3885 43.2642V45.2642C50.4436 45.2642 51.4195 45.1041 52.2996 44.7614L51.5741 42.8977ZM2.91761 73H1.91761V74H2.91761V73ZM2.91761 55.5455V54.5455H1.91761V55.5455H2.91761ZM5.46591 55.5455H6.46591V54.5455H5.46591V55.5455ZM5.46591 62.0312H4.46591V63.0312H5.46591V62.0312ZM5.61932 62.0312V63.0312H6.21493L6.49861 62.5075L5.61932 62.0312ZM6.25852 61.0852L7.04788 61.6992L7.04788 61.6992L6.25852 61.0852ZM7.41761 60.1477L7.89294 61.0276L7.90069 61.0233L7.41761 60.1477ZM12.2074 60.5398L11.666 61.3806L11.666 61.3806L12.2074 60.5398ZM14.1591 62.8494L13.2537 63.274L13.2557 63.2782L14.1591 62.8494ZM14.1676 70.1193L15.073 70.5439L15.0739 70.5419L14.1676 70.1193ZM12.2244 72.446L12.7725 73.2825L12.7765 73.2798L12.2244 72.446ZM7.4517 72.8551L6.98059 73.7372L6.98473 73.7394L7.4517 72.8551ZM6.27557 71.9176L5.49228 72.5393L5.49228 72.5393L6.27557 71.9176ZM5.61932 70.9631L6.49516 70.4805L6.21006 69.9631H5.61932V70.9631ZM5.40625 70.9631V69.9631H4.40625V70.9631H5.40625ZM5.40625 73V74H6.40625V73H5.40625ZM5.81534 68.875L4.88219 69.2345L4.88219 69.2345L5.81534 68.875ZM6.97443 70.5028L6.36171 71.2932L6.36731 71.2975L6.97443 70.5028ZM10.7415 70.4773L11.3609 71.2624L11.3662 71.2581L10.7415 70.4773ZM11.9006 68.8153L10.9664 68.4584L10.9639 68.4651L11.9006 68.8153ZM11.9091 64.1278L10.9718 64.4764L10.9744 64.4832L11.9091 64.1278ZM10.75 62.5L10.1361 63.2894L10.1403 63.2926L10.75 62.5ZM6.95739 62.4744L6.36023 61.6723L6.35595 61.6755L6.95739 62.4744ZM5.80682 64.0682L4.87307 63.7102L4.87307 63.7102L5.80682 64.0682ZM3.91761 73V55.5455H1.91761V73H3.91761ZM2.91761 56.5455H5.46591V54.5455H2.91761V56.5455ZM4.46591 55.5455V62.0312H6.46591V55.5455H4.46591ZM5.46591 63.0312H5.61932V61.0312H5.46591V63.0312ZM6.49861 62.5075C6.61125 62.2996 6.78927 62.0317 7.04788 61.6992L5.46917 60.4713C5.17096 60.8547 4.92284 61.2175 4.74003 61.555L6.49861 62.5075ZM7.04788 61.6992C7.2234 61.4735 7.49226 61.244 7.89292 61.0275L6.94231 59.2679C6.35433 59.5855 5.85046 59.9811 5.46917 60.4713L7.04788 61.6992ZM7.90069 61.0233C8.19626 60.8602 8.66477 60.7386 9.37784 60.7386V58.7386C8.46591 58.7386 7.62761 58.8898 6.93454 59.2721L7.90069 61.0233ZM9.37784 60.7386C10.257 60.7386 11.0095 60.9579 11.666 61.3806L12.7487 59.699C11.7462 59.0535 10.6124 58.7386 9.37784 58.7386V60.7386ZM11.666 61.3806C12.3183 61.8005 12.8516 62.4165 13.2537 63.274L15.0645 62.4249C14.5234 61.271 13.7556 60.3472 12.7487 59.699L11.666 61.3806ZM13.2557 63.2782C13.6545 64.1187 13.875 65.1747 13.875 66.4801H15.875C15.875 64.9559 15.6182 63.5915 15.0625 62.4207L13.2557 63.2782ZM13.875 66.4801C13.875 67.7867 13.657 68.8482 13.2613 69.6967L15.0739 70.5419C15.6214 69.3677 15.875 68.0031 15.875 66.4801H13.875ZM13.2622 69.6948C12.8587 70.5553 12.3247 71.1803 11.6724 71.6122L12.7765 73.2798C13.7719 72.6208 14.5334 71.6947 15.073 70.5439L13.2622 69.6948ZM11.6764 71.6096C11.0274 72.0348 10.2804 72.2557 9.40341 72.2557V74.2557C10.6401 74.2557 11.7737 73.9368 12.7725 73.2825L11.6764 71.6096ZM9.40341 72.2557C8.71054 72.2557 8.23527 72.138 7.91868 71.9708L6.98473 73.7394C7.6795 74.1063 8.50537 74.2557 9.40341 74.2557V72.2557ZM7.92281 71.973C7.51542 71.7555 7.23998 71.5242 7.05886 71.296L5.49228 72.5393C5.87934 73.027 6.38799 73.4207 6.9806 73.7372L7.92281 71.973ZM7.05886 71.296C6.7958 70.9645 6.6128 70.694 6.49516 70.4805L4.74348 71.4457C4.93265 71.789 5.18715 72.1548 5.49228 72.5393L7.05886 71.296ZM5.61932 69.9631H5.40625V71.9631H5.61932V69.9631ZM4.40625 70.9631V73H6.40625V70.9631H4.40625ZM5.40625 72H2.91761V74H5.40625V72ZM4.41477 66.4545C4.41477 67.4696 4.5618 68.4028 4.88219 69.2345L6.74849 68.5155C6.5348 67.9608 6.41477 67.2804 6.41477 66.4545H4.41477ZM4.88219 69.2345C5.20407 70.07 5.69009 70.7724 6.36172 71.2931L7.58714 69.7125C7.24741 69.4491 6.9607 69.0664 6.74849 68.5155L4.88219 69.2345ZM6.36731 71.2975C7.07309 71.8367 7.91476 72.0824 8.83239 72.0824V70.0824C8.2841 70.0824 7.88714 69.9417 7.58155 69.7082L6.36731 71.2975ZM8.83239 72.0824C9.77888 72.0824 10.6443 71.8277 11.3608 71.2624L10.1221 69.6922C9.81596 69.9337 9.40862 70.0824 8.83239 70.0824V72.0824ZM11.3662 71.2581C12.0372 70.7213 12.5216 70.0095 12.8372 69.1656L10.9639 68.4651C10.7568 69.0189 10.4684 69.4151 10.1168 69.6964L11.3662 71.2581ZM12.8347 69.1723C13.152 68.3419 13.3011 67.4312 13.3011 66.4545H11.3011C11.3011 67.2279 11.1832 67.8911 10.9664 68.4584L12.8347 69.1723ZM13.3011 66.4545C13.3011 65.4902 13.1551 64.5914 12.8438 63.7725L10.9744 64.4832C11.1858 65.0393 11.3011 65.6916 11.3011 66.4545H13.3011ZM12.8464 63.7793C12.5337 62.9385 12.0434 62.2333 11.3597 61.7074L10.1403 63.2926C10.4907 63.5622 10.7731 63.9422 10.9718 64.4764L12.8464 63.7793ZM11.3639 61.7106C10.6462 61.1524 9.77936 60.9034 8.83239 60.9034V62.9034C9.41951 62.9034 9.83103 63.0521 10.1361 63.2894L11.3639 61.7106ZM8.83239 60.9034C7.91405 60.9034 7.07061 61.1435 6.36024 61.6723L7.55453 63.2766C7.86689 63.044 8.27345 62.9034 8.83239 62.9034V60.9034ZM6.35595 61.6755C5.67841 62.1856 5.19109 62.8806 4.87307 63.7102L6.74056 64.4261C6.94528 63.8921 7.225 63.5247 7.55882 63.2734L6.35595 61.6755ZM4.87307 63.7102C4.55864 64.5305 4.41477 65.452 4.41477 66.4545H6.41477C6.41477 65.6389 6.53227 64.9695 6.74056 64.4261L4.87307 63.7102ZM19.827 70.0597L20.7214 69.6124L20.7214 69.6124L19.827 70.0597ZM21.9576 60.5824L22.4814 61.4342L22.4814 61.4342L21.9576 60.5824ZM28.3838 60.5824L27.86 61.4342L27.86 61.4342L28.3838 60.5824ZM30.5145 70.0597L29.62 69.6124L30.5145 70.0597ZM28.3838 72.4205L28.9076 73.2723L28.9076 73.2723L28.3838 72.4205ZM27.1565 70.4943L26.5297 69.7151L26.5297 69.7151L27.1565 70.4943ZM28.3156 68.8153L27.3764 68.4718L27.374 68.4785L28.3156 68.8153ZM28.3156 64.2045L27.3731 64.539L27.3765 64.5481L28.3156 64.2045ZM27.1565 62.5085L26.5246 63.2836L26.5246 63.2836L27.1565 62.5085ZM23.1849 62.5085L22.5572 61.7301L22.5531 61.7334L23.1849 62.5085ZM22.0173 64.2045L21.0773 63.8634L21.0757 63.8677L22.0173 64.2045ZM22.0173 68.8153L21.0757 69.1522L21.0782 69.1589L22.0173 68.8153ZM23.1849 70.4943L22.5581 71.2735L22.5623 71.2768L23.1849 70.4943ZM25.1707 72.2642C24.1014 72.2642 23.2172 72.021 22.4814 71.5686L21.4338 73.2723C22.5277 73.9449 23.7855 74.2642 25.1707 74.2642V72.2642ZM22.4814 71.5686C21.7341 71.1091 21.1483 70.4663 20.7214 69.6124L18.9325 70.5069C19.517 71.6758 20.3516 72.6068 21.4338 73.2723L22.4814 71.5686ZM20.7214 69.6124C20.2975 68.7646 20.0684 67.7414 20.0684 66.5142H18.0684C18.0684 67.9916 18.3451 69.332 18.9325 70.5069L20.7214 69.6124ZM20.0684 66.5142C20.0684 65.2808 20.2977 64.2511 20.7224 63.3969L18.9315 62.5065C18.3449 63.6864 18.0684 65.0317 18.0684 66.5142H20.0684ZM20.7224 63.3969C21.1497 62.5374 21.7355 61.8929 22.4814 61.4342L21.4338 59.7305C20.3502 60.3969 19.5156 61.3319 18.9315 62.5065L20.7224 63.3969ZM22.4814 61.4342C23.2172 60.9818 24.1014 60.7386 25.1707 60.7386V58.7386C23.7855 58.7386 22.5277 59.0579 21.4338 59.7305L22.4814 61.4342ZM25.1707 60.7386C26.24 60.7386 27.1243 60.9818 27.86 61.4342L28.9076 59.7305C27.8138 59.0579 26.5559 58.7386 25.1707 58.7386V60.7386ZM27.86 61.4342C28.6059 61.8929 29.1917 62.5374 29.619 63.3969L31.4099 62.5065C30.8259 61.3319 29.9912 60.3969 28.9076 59.7305L27.86 61.4342ZM29.619 63.3969C30.0437 64.2511 30.273 65.2808 30.273 66.5142H32.273C32.273 65.0317 31.9965 63.6864 31.4099 62.5065L29.619 63.3969ZM30.273 66.5142C30.273 67.7414 30.044 68.7646 29.62 69.6124L31.4089 70.5069C31.9963 69.332 32.273 67.9916 32.273 66.5142H30.273ZM29.62 69.6124C29.1931 70.4663 28.6073 71.1091 27.86 71.5686L28.9076 73.2723C29.9898 72.6068 30.8244 71.6758 31.4089 70.5069L29.62 69.6124ZM27.86 71.5686C27.1243 72.021 26.24 72.2642 25.1707 72.2642V74.2642C26.5559 74.2642 27.8138 73.9449 28.9076 73.2723L27.86 71.5686ZM25.1792 72.125C26.1586 72.125 27.0513 71.8623 27.7833 71.2735L26.5297 69.7151C26.2162 69.9673 25.7908 70.125 25.1792 70.125V72.125ZM27.7833 71.2735C28.4647 70.7254 28.9519 70.0056 29.2572 69.1522L27.374 68.4785C27.1793 69.0228 26.8938 69.4223 26.5297 69.7151L27.7833 71.2735ZM29.2547 69.1589C29.5556 68.3367 29.6991 67.4487 29.6991 66.5057H27.6991C27.6991 67.2445 27.587 67.8963 27.3765 68.4718L29.2547 69.1589ZM29.6991 66.5057C29.6991 65.5675 29.5553 64.6825 29.2547 63.861L27.3765 64.5481C27.5873 65.1243 27.6991 65.7734 27.6991 66.5057H29.6991ZM29.258 63.8701C28.9536 63.0123 28.4681 62.2875 27.7884 61.7334L26.5246 63.2836C26.8904 63.5818 27.1776 63.9877 27.3732 64.539L29.258 63.8701ZM27.7884 61.7334C27.0564 61.1367 26.1617 60.8693 25.1792 60.8693V62.8693C25.7876 62.8693 26.2112 63.0281 26.5246 63.2836L27.7884 61.7334ZM25.1792 60.8693C24.1926 60.8693 23.2941 61.1358 22.5572 61.7301L23.8127 63.2869C24.1325 63.029 24.5636 62.8693 25.1792 62.8693V60.8693ZM22.5531 61.7334C21.8751 62.2861 21.3876 63.0085 21.0773 63.8634L22.9573 64.5457C23.1584 63.9915 23.4493 63.5832 23.8168 63.2836L22.5531 61.7334ZM21.0757 63.8677C20.7825 64.6873 20.6423 65.5699 20.6423 66.5057H22.6423C22.6423 65.771 22.7521 65.1195 22.9589 64.5414L21.0757 63.8677ZM20.6423 66.5057C20.6423 67.4463 20.7823 68.3319 21.0757 69.1522L22.9589 68.4785C22.7523 67.9011 22.6423 67.2469 22.6423 66.5057H20.6423ZM21.0782 69.1589C21.3894 70.0095 21.8785 70.7268 22.5582 71.2735L23.8117 69.7151C23.4459 69.4209 23.1566 69.0189 22.9564 68.4718L21.0782 69.1589ZM22.5623 71.2768C23.2992 71.8632 24.1958 72.125 25.1792 72.125V70.125C24.5604 70.125 24.1275 69.9664 23.8076 69.7118L22.5623 71.2768ZM36.0374 73H35.0374V74H36.0374V73ZM36.0374 59.9091V58.9091H35.0374V59.9091H36.0374ZM38.5005 59.9091H39.5005V58.9091H38.5005V59.9091ZM38.5005 61.9886H37.5005V62.9886H38.5005V61.9886ZM38.6369 61.9886V62.9886H39.354L39.584 62.3094L38.6369 61.9886ZM39.8982 60.3267L40.4547 61.1575L40.4565 61.1564L39.8982 60.3267ZM42.5232 59.7301L42.4707 60.7287L42.472 60.7288L42.5232 59.7301ZM43.0431 59.7727H44.0431V58.8998L43.1782 58.7819L43.0431 59.7727ZM43.0431 62.2102L42.7755 63.1737L44.0431 63.5259V62.2102H43.0431ZM42.4977 62.1165L42.3472 63.1051L42.3578 63.1067L42.3683 63.1081L42.4977 62.1165ZM40.1028 62.4403L40.5756 63.3215L40.5794 63.3194L40.1028 62.4403ZM38.9948 63.4886L39.8465 64.0127L39.8494 64.0079L38.9948 63.4886ZM38.5857 73V74H39.5857V73H38.5857ZM37.0374 73V59.9091H35.0374V73H37.0374ZM36.0374 60.9091H38.5005V58.9091H36.0374V60.9091ZM37.5005 59.9091V61.9886H39.5005V59.9091H37.5005ZM38.5005 62.9886H38.6369V60.9886H38.5005V62.9886ZM39.584 62.3094C39.7541 61.8074 40.0403 61.4351 40.4547 61.1575L39.3417 59.4959C38.5516 60.0251 37.9969 60.7608 37.6897 61.6678L39.584 62.3094ZM40.4565 61.1564C40.8915 60.8637 41.3828 60.7131 41.9607 60.7131V58.7131C41.0046 58.7131 40.1209 58.9716 39.34 59.497L40.4565 61.1564ZM41.9607 60.7131C42.0974 60.7131 42.2665 60.718 42.4707 60.7287L42.5758 58.7315C42.3481 58.7195 42.1423 58.7131 41.9607 58.7131V60.7131ZM42.472 60.7288C42.6831 60.7396 42.8241 60.7521 42.908 60.7636L43.1782 58.7819C43.0122 58.7593 42.8065 58.7433 42.5745 58.7314L42.472 60.7288ZM42.0431 59.7727V62.2102H44.0431V59.7727H42.0431ZM43.3108 61.2467C43.1326 61.1972 42.8867 61.1587 42.627 61.1249L42.3683 63.1081C42.4908 63.124 42.5874 63.1384 42.6607 63.151C42.6971 63.1573 42.7252 63.1627 42.746 63.167C42.7676 63.1716 42.7763 63.174 42.7755 63.1737L43.3108 61.2467ZM42.6481 61.1279C42.3375 61.0806 42.0259 61.0568 41.7136 61.0568V63.0568C41.924 63.0568 42.1351 63.0728 42.3472 63.1051L42.6481 61.1279ZM41.7136 61.0568C40.9656 61.0568 40.2613 61.2169 39.6262 61.5612L40.5794 63.3194C40.8874 63.1524 41.257 63.0568 41.7136 63.0568V61.0568ZM39.63 61.5592C39.0079 61.893 38.5063 62.3669 38.1402 62.9694L39.8494 64.0079C40.0288 63.7127 40.2659 63.4877 40.5756 63.3215L39.63 61.5592ZM38.1432 62.9645C37.7646 63.5797 37.5857 64.27 37.5857 65.0057H39.5857C39.5857 64.605 39.6796 64.284 39.8465 64.0127L38.1432 62.9645ZM37.5857 65.0057V73H39.5857V65.0057H37.5857ZM38.5857 72H36.0374V74H38.5857V72ZM48.7707 72.446L48.2186 73.2799L48.2253 73.2842L48.7707 72.446ZM46.8275 70.1193L45.9192 70.5377L45.9221 70.5439L46.8275 70.1193ZM46.836 62.8494L45.9326 62.4207L45.9306 62.4249L46.836 62.8494ZM48.7962 60.5398L49.3376 61.3806L49.3376 61.3806L48.7962 60.5398ZM53.5775 60.1477L53.0943 61.0234L53.1064 61.0298L53.5775 60.1477ZM54.7366 61.0852L53.9411 61.6913L53.9472 61.6992L54.7366 61.0852ZM55.3843 62.0312L54.5127 62.5215L54.7994 63.0312H55.3843V62.0312ZM55.5377 62.0312V63.0312H56.5377V62.0312H55.5377ZM55.5377 55.5455V54.5455H54.5377V55.5455H55.5377ZM58.086 55.5455H59.086V54.5455H58.086V55.5455ZM58.086 73V74H59.086V73H58.086ZM55.5974 73H54.5974V74H55.5974V73ZM55.5974 70.9631H56.5974V69.9631H55.5974V70.9631ZM55.3843 70.9631V69.9631H54.7935L54.5085 70.4805L55.3843 70.9631ZM54.7195 71.9176L53.9422 71.2884L53.9362 71.296L54.7195 71.9176ZM54.0207 70.5028L54.6278 71.2975L54.6291 71.2964L54.0207 70.5028ZM55.1797 68.875L54.2466 68.5155L54.244 68.5222L55.1797 68.875ZM55.1883 64.0682L54.2545 64.4261L54.2545 64.4261L55.1883 64.0682ZM54.0377 62.4744L53.4363 63.2734L53.4363 63.2734L54.0377 62.4744ZM50.2451 62.5L50.859 63.2894L50.859 63.2894L50.2451 62.5ZM49.086 64.1278L48.1512 63.7725L48.1487 63.7793L49.086 64.1278ZM49.0945 68.8153L50.0312 68.4651L50.0312 68.4651L49.0945 68.8153ZM50.2536 70.4773L49.6289 71.2582L49.6385 71.2657L50.2536 70.4773ZM51.6002 72.2557C50.7233 72.2557 49.9721 72.0348 49.316 71.6078L48.2253 73.2842C49.2283 73.9368 50.3635 74.2557 51.6002 74.2557V72.2557ZM49.3227 71.6122C48.6704 71.1803 48.1364 70.5553 47.7329 69.6948L45.9221 70.5439C46.4617 71.6947 47.2232 72.6208 48.2186 73.2798L49.3227 71.6122ZM47.7357 69.7009C47.3443 68.8512 47.1286 67.7882 47.1286 66.4801H45.1286C45.1286 68.0016 45.3788 69.3647 45.9192 70.5377L47.7357 69.7009ZM47.1286 66.4801C47.1286 65.1733 47.3467 64.1156 47.7414 63.274L45.9306 62.4249C45.3821 63.5946 45.1286 64.9574 45.1286 66.4801H47.1286ZM47.7394 63.2782C48.1473 62.4187 48.6842 61.8012 49.3376 61.3806L48.2549 59.699C47.2492 60.3465 46.4792 61.2688 45.9326 62.4207L47.7394 63.2782ZM49.3376 61.3806C49.995 60.9573 50.7449 60.7386 51.6172 60.7386V58.7386C50.3873 58.7386 49.2566 59.0541 48.2549 59.699L49.3376 61.3806ZM51.6172 60.7386C52.3303 60.7386 52.7988 60.8602 53.0944 61.0233L54.0605 59.2721C53.3675 58.8898 52.5292 58.7386 51.6172 58.7386V60.7386ZM53.1064 61.0298C53.5116 61.2462 53.7749 61.4732 53.9411 61.6913L55.532 60.4792C55.1527 59.9814 54.6434 59.5833 54.0486 59.2657L53.1064 61.0298ZM53.9472 61.6992C54.2074 62.0337 54.3917 62.3064 54.5127 62.5215L56.2559 61.541C56.07 61.2106 55.8225 60.8526 55.5259 60.4713L53.9472 61.6992ZM55.3843 63.0312H55.5377V61.0312H55.3843V63.0312ZM56.5377 62.0312V55.5455H54.5377V62.0312H56.5377ZM55.5377 56.5455H58.086V54.5455H55.5377V56.5455ZM57.086 55.5455V73H59.086V55.5455H57.086ZM58.086 72H55.5974V74H58.086V72ZM56.5974 73V70.9631H54.5974V73H56.5974ZM55.5974 69.9631H55.3843V71.9631H55.5974V69.9631ZM54.5085 70.4805C54.3931 70.6899 54.2099 70.9579 53.9423 71.2884L55.4968 72.5468C55.8087 72.1615 56.0687 71.7931 56.2601 71.4457L54.5085 70.4805ZM53.9362 71.296C53.7551 71.5242 53.4797 71.7555 53.0723 71.973L54.0145 73.7372C54.6071 73.4207 55.1157 73.027 55.5028 72.5393L53.9362 71.296ZM53.0723 71.973C52.7638 72.1378 52.2938 72.2557 51.6002 72.2557V74.2557C52.4975 74.2557 53.3229 74.1066 54.0145 73.7372L53.0723 71.973ZM52.1627 72.0824C53.0803 72.0824 53.922 71.8367 54.6278 71.2975L53.4135 69.7082C53.1079 69.9417 52.711 70.0824 52.1627 70.0824V72.0824ZM54.6291 71.2964C55.3096 70.7747 55.7983 70.0689 56.1154 69.2278L54.244 68.5222C54.0384 69.0675 53.7544 69.4469 53.4122 69.7092L54.6291 71.2964ZM56.1129 69.2345C56.4333 68.4028 56.5803 67.4696 56.5803 66.4545H54.5803C54.5803 67.2804 54.4603 67.9608 54.2466 68.5155L56.1129 69.2345ZM56.5803 66.4545C56.5803 65.452 56.4364 64.5305 56.122 63.7102L54.2545 64.4261C54.4628 64.9695 54.5803 65.6389 54.5803 66.4545H56.5803ZM56.122 63.7102C55.804 62.8806 55.3167 62.1856 54.6391 61.6755L53.4363 63.2734C53.7701 63.5247 54.0498 63.8921 54.2545 64.4261L56.122 63.7102ZM54.6391 61.6755C53.931 61.1424 53.0845 60.9034 52.1627 60.9034V62.9034C52.7296 62.9034 53.1331 63.0451 53.4363 63.2734L54.6391 61.6755ZM52.1627 60.9034C51.2157 60.9034 50.3488 61.1524 49.6311 61.7106L50.859 63.2894C51.1641 63.0521 51.5756 62.9034 52.1627 62.9034V60.9034ZM49.6311 61.7106C48.9563 62.2355 48.4687 62.9374 48.1513 63.7725L50.0207 64.4832C50.226 63.9433 50.5111 63.5599 50.859 63.2894L49.6311 61.7106ZM48.1487 63.7793C47.8449 64.5962 47.7025 65.4926 47.7025 66.4545H49.7025C49.7025 65.6892 49.8157 65.0345 50.0233 64.4764L48.1487 63.7793ZM47.7025 66.4545C47.7025 67.4289 47.8481 68.3372 48.1579 69.1656L50.0312 68.4651C49.8182 67.8957 49.7025 67.2302 49.7025 66.4545H47.7025ZM48.1579 69.1656C48.4735 70.0095 48.9578 70.7213 49.6289 71.2581L50.8783 69.6964C50.5266 69.4151 50.2383 69.0189 50.0312 68.4651L48.1579 69.1656ZM49.6385 71.2657C50.3573 71.8266 51.2196 72.0824 52.1627 72.0824V70.0824C51.5944 70.0824 51.184 69.9348 50.8687 69.6889L49.6385 71.2657ZM65.9527 72.4375L65.4374 73.2946L65.4436 73.2982L65.9527 72.4375ZM63.805 70.0938L62.9085 70.5369L62.9116 70.543L63.805 70.0938ZM63.805 62.9943L62.9086 62.5511L62.9066 62.5551L63.805 62.9943ZM65.9186 60.5994L65.3848 59.7538L65.3824 59.7553L65.9186 60.5994ZM71.2539 60.1051L71.5863 59.162L71.5863 59.162L71.2539 60.1051ZM73.1203 61.2557L72.4322 61.9812L72.4322 61.9812L73.1203 61.2557ZM74.4243 63.2926L73.4898 63.6486L73.4906 63.6507L74.4243 63.2926ZM74.9016 67.2216V68.2216H75.9016V67.2216H74.9016ZM64.4953 67.2216H63.4953V68.2216H64.4953V67.2216ZM64.4953 65.3125V64.3125H63.4953V65.3125H64.4953ZM72.4044 65.3125V66.3125H73.4044V65.3125H72.4044ZM71.9953 63.5312L71.1087 63.9938L71.1108 63.9978L71.9953 63.5312ZM70.8448 62.2955L70.3201 63.1468L70.3245 63.1495L70.8448 62.2955ZM67.2482 62.3722L67.7966 63.2083L67.7988 63.2069L67.2482 62.3722ZM66.0209 63.7358L65.1319 63.2778L65.1301 63.2813L66.0209 63.7358ZM66.055 69.2756L65.1605 69.7228L65.1639 69.7294L66.055 69.2756ZM67.359 70.6818L66.8562 71.5463L66.8628 71.5501L67.359 70.6818ZM70.6317 70.9545L70.9561 71.9006L70.968 71.8963L70.6317 70.9545ZM71.663 70.3239L70.9701 69.6028L70.9701 69.6028L71.663 70.3239ZM72.3277 69.2926L72.5051 68.3085L71.6843 68.1605L71.3914 68.9415L72.3277 69.2926ZM74.7397 69.7273L75.7046 69.9897L75.991 68.9367L74.917 68.7431L74.7397 69.7273ZM73.6999 71.5938L72.9699 70.9103L72.9696 70.9106L73.6999 71.5938ZM71.8334 72.8295L72.1962 73.7614L72.1999 73.76L71.8334 72.8295ZM69.2851 72.2642C68.14 72.2642 67.2123 72.0207 66.4618 71.5768L65.4436 73.2982C66.5568 73.9566 67.8507 74.2642 69.2851 74.2642V72.2642ZM66.468 71.5805C65.7109 71.1253 65.1229 70.4886 64.6984 69.6445L62.9116 70.543C63.4985 71.7102 64.3423 72.6361 65.4375 73.2945L66.468 71.5805ZM64.7014 69.6506C64.2821 68.8023 64.055 67.7749 64.055 66.5398H62.055C62.055 68.0205 62.3279 69.3625 62.9086 70.5369L64.7014 69.6506ZM64.055 66.5398C64.055 65.3242 64.2811 64.2972 64.7034 63.4335L62.9066 62.5551C62.3289 63.7369 62.055 65.0735 62.055 66.5398H64.055ZM64.7014 63.4375C65.1315 62.5676 65.7162 61.9127 66.4548 61.4435L65.3824 59.7553C64.3143 60.4339 63.4898 61.3756 62.9086 62.5511L64.7014 63.4375ZM66.4524 61.445C67.1815 60.9848 68.0537 60.7386 69.1061 60.7386V58.7386C67.7267 58.7386 66.4739 59.0663 65.3848 59.7538L66.4524 61.445ZM69.1061 60.7386C69.7321 60.7386 70.3356 60.8418 70.9214 61.0482L71.5863 59.162C70.7858 58.8798 69.9574 58.7386 69.1061 58.7386V60.7386ZM70.9214 61.0482C71.4776 61.2443 71.9795 61.5519 72.4322 61.9812L73.8085 60.5301C73.1589 59.914 72.4165 59.4546 71.5863 59.162L70.9214 61.0482ZM72.4322 61.9812C72.857 62.3841 73.2157 62.9289 73.4898 63.6486L75.3588 62.9366C74.9966 61.9859 74.486 61.1727 73.8085 60.5301L72.4322 61.9812ZM73.4906 63.6507C73.753 64.3346 73.9016 65.2143 73.9016 66.3182H75.9016C75.9016 65.047 75.732 63.9097 75.358 62.9345L73.4906 63.6507ZM73.9016 66.3182V67.2216H75.9016V66.3182H73.9016ZM74.9016 66.2216H64.4953V68.2216H74.9016V66.2216ZM65.4953 67.2216V65.3125H63.4953V67.2216H65.4953ZM64.4953 66.3125H72.4044V64.3125H64.4953V66.3125ZM73.4044 65.3125C73.4044 64.5035 73.2389 63.7454 72.8798 63.0647L71.1108 63.9978C71.2972 64.3512 71.4044 64.7806 71.4044 65.3125H73.4044ZM72.8819 63.0687C72.5266 62.3877 72.0178 61.8391 71.365 61.4414L70.3245 63.1495C70.6604 63.3541 70.9186 63.6293 71.1088 63.9938L72.8819 63.0687ZM71.3694 61.4441C70.7008 61.0321 69.9395 60.8438 69.1232 60.8438V62.8438C69.625 62.8438 70.0115 62.9566 70.3201 63.1468L71.3694 61.4441ZM69.1232 60.8438C68.2356 60.8438 67.4141 61.0648 66.6976 61.5374L67.7988 63.2069C68.1504 62.975 68.5789 62.8438 69.1232 62.8438V60.8438ZM66.6997 61.536C66.0269 61.9773 65.5006 62.5622 65.1319 63.2778L66.9099 64.1938C67.1208 63.7844 67.4127 63.4602 67.7966 63.2083L66.6997 61.536ZM65.1301 63.2813C64.771 63.9853 64.5948 64.7471 64.5948 65.5511H66.5948C66.5948 65.0483 66.7027 64.5999 66.9117 64.1903L65.1301 63.2813ZM64.5948 65.5511V67.0426H66.5948V65.5511H64.5948ZM64.5948 67.0426C64.5948 68.0314 64.7679 68.9374 65.1606 69.7228L66.9494 68.8284C66.7285 68.3865 66.5948 67.8039 66.5948 67.0426H64.5948ZM65.1639 69.7294C65.5574 70.502 66.1215 71.1189 66.8562 71.5462L67.8618 69.8174C67.4828 69.597 67.1776 69.2764 66.9461 68.8218L65.1639 69.7294ZM66.8628 71.5501C67.5935 71.9676 68.4206 72.1591 69.3107 72.1591V70.1591C68.7122 70.1591 68.2381 70.0324 67.8551 69.8136L66.8628 71.5501ZM69.3107 72.1591C69.8879 72.1591 70.4397 72.0775 70.956 71.9005L70.3074 70.0086C70.0283 70.1043 69.6994 70.1591 69.3107 70.1591V72.1591ZM70.968 71.8963C71.4919 71.7092 71.9589 71.4263 72.3558 71.045L70.9701 69.6028C70.7874 69.7783 70.5669 69.9158 70.2954 70.0128L70.968 71.8963ZM72.3558 71.045C72.7625 70.6542 73.0628 70.1804 73.2641 69.6437L71.3914 68.9415C71.2858 69.223 71.1429 69.4367 70.9701 69.6028L72.3558 71.045ZM72.1504 70.2768L74.5623 70.7114L74.917 68.7431L72.5051 68.3085L72.1504 70.2768ZM73.7747 69.4648C73.6241 70.0187 73.3577 70.496 72.9699 70.9103L74.4299 72.2772C75.0421 71.6233 75.4689 70.8563 75.7046 69.9897L73.7747 69.4648ZM72.9696 70.9106C72.5877 71.3188 72.0947 71.6518 71.4669 71.8991L72.1999 73.76C73.0721 73.4164 73.8234 72.9255 74.4302 72.2769L72.9696 70.9106ZM71.4706 71.8977C70.8621 72.1346 70.1392 72.2642 69.2851 72.2642V74.2642C70.3401 74.2642 71.3161 74.1041 72.1962 73.7614L71.4706 71.8977ZM79.649 73H78.649V74H79.649V73ZM79.649 59.9091V58.9091H78.649V59.9091H79.649ZM82.1121 59.9091H83.1121V58.9091H82.1121V59.9091ZM82.1121 61.9886H81.1121V62.9886H82.1121V61.9886ZM82.2484 61.9886V62.9886H82.9655L83.1956 62.3094L82.2484 61.9886ZM83.5098 60.3267L84.0663 61.1575L84.0681 61.1564L83.5098 60.3267ZM86.1348 59.7301L86.0822 60.7287L86.0836 60.7288L86.1348 59.7301ZM86.6547 59.7727H87.6547V58.8998L86.7898 58.7819L86.6547 59.7727ZM86.6547 62.2102L86.387 63.1737L87.6547 63.5259V62.2102H86.6547ZM86.1092 62.1165L85.9588 63.1051L85.9693 63.1067L85.9799 63.1081L86.1092 62.1165ZM83.7143 62.4403L84.1872 63.3215L84.191 63.3194L83.7143 62.4403ZM82.6064 63.4886L83.4581 64.0127L83.461 64.0079L82.6064 63.4886ZM82.1973 73V74H83.1973V73H82.1973ZM80.649 73V59.9091H78.649V73H80.649ZM79.649 60.9091H82.1121V58.9091H79.649V60.9091ZM81.1121 59.9091V61.9886H83.1121V59.9091H81.1121ZM82.1121 62.9886H82.2484V60.9886H82.1121V62.9886ZM83.1956 62.3094C83.3656 61.8074 83.6519 61.4351 84.0663 61.1575L82.9533 59.4959C82.1632 60.0251 81.6085 60.7608 81.3013 61.6678L83.1956 62.3094ZM84.0681 61.1564C84.503 60.8637 84.9943 60.7131 85.5723 60.7131V58.7131C84.6162 58.7131 83.7325 58.9716 82.9515 59.497L84.0681 61.1564ZM85.5723 60.7131C85.7089 60.7131 85.8781 60.718 86.0822 60.7287L86.1874 58.7315C85.9597 58.7195 85.7539 58.7131 85.5723 58.7131V60.7131ZM86.0836 60.7288C86.2947 60.7396 86.4356 60.7521 86.5196 60.7636L86.7898 58.7819C86.6237 58.7593 86.4181 58.7433 86.186 58.7314L86.0836 60.7288ZM85.6547 59.7727V62.2102H87.6547V59.7727H85.6547ZM86.9223 61.2467C86.7442 61.1972 86.4982 61.1587 86.2386 61.1249L85.9799 63.1081C86.1023 63.124 86.1989 63.1384 86.2722 63.151C86.3087 63.1573 86.3367 63.1627 86.3575 63.167C86.3792 63.1716 86.3879 63.174 86.387 63.1737L86.9223 61.2467ZM86.2597 61.1279C85.9491 61.0806 85.6374 61.0568 85.3251 61.0568V63.0568C85.5356 63.0568 85.7466 63.0728 85.9588 63.1051L86.2597 61.1279ZM85.3251 61.0568C84.5772 61.0568 83.8729 61.2169 83.2377 61.5612L84.191 63.3194C84.499 63.1524 84.8686 63.0568 85.3251 63.0568V61.0568ZM83.2415 61.5592C82.6194 61.893 82.1178 62.3669 81.7518 62.9694L83.461 64.0079C83.6404 63.7127 83.8774 63.4877 84.1872 63.3215L83.2415 61.5592ZM81.7547 62.9645C81.3762 63.5797 81.1973 64.27 81.1973 65.0057H83.1973C83.1973 64.605 83.2911 64.284 83.458 64.0127L81.7547 62.9645ZM81.1973 65.0057V73H83.1973V65.0057H81.1973ZM82.1973 72H79.649V74H82.1973V72Z" fill="#276BAA" mask="url(#path-1-outside-1_110_35)"/>
</svg>
